#!OML:ASF F:\VICON\USERDATA\INSTALL\rory3\rory3.ASF
:FULLY-SPECIFIED
:DEGREES
132
root -0.3568588776670301 18.270031229905396 4.440611834743123 12.294746212026167 0.2137138611033622 -0.9249229891083022
lfemur -27.561897571533432 8.331904347593124 -19.151602284081402
ltibia 49.598634680813376
lfoot -4.342958637174118 -4.133819087927965
ltoes -15.991080427941363
rfemur -20.052821780621855 -3.553034784845816 20.850540719222522
rtibia 24.91611636903552
rfoot -15.127410590069694 -0.6136246771903799
rtoes 5.676695483133446
lowerback 11.441120076208927 0.17764590084698692 -0.5197532431821292
upperback 7.573748819671387 0.30317843682933826 1.3256390698729836
thorax 1.4971297629194131 0.07781332919975051 0.8763028951187323
lowerneck -15.916798086275659 0.32877276932847294 -1.792997282428614
upperneck 14.740245207896336 0.6569216995275317 -0.12837483051020693
head 6.610900518595568 0.17691405632060925 0.2282201266631142
lclavicle 5.758006657390275e-16 -3.1092413170251973e-16
lhumerus -17.051106013529374 -1.4355065254537158 85.36881093335964
lradius 18.300219594356395
lwrist 6.10984562371934
lhand -25.801196750213798 -7.319578926550838
lfingers 7.125019999999998
lthumb 0.9929581386588164 23.39935604458065
rclavicle 5.746627600709257e-16 -3.1304720474863996e-16
rhumerus -27.278038224597882 -10.005688728369835 -75.84006530369851
rradius 22.852160358605918
rwrist 35.02351538322116
rhand -20.870104823518034 -25.64246175419678
rfingers 7.125019999999998
rthumb 5.146653430542354 -56.04370963950763
133
root -0.3597013347379296 18.287772816506546 4.274120081153196 12.482705655298645 0.2929568816477539 -0.9044822167481944
lfemur -27.63495954497944 8.246687494102874 -19.14234585505727
ltibia 50.090171678962264
lfoot -4.2052381435436885 -4.194021895690168
ltoes -15.649229452433222
rfemur -20.193326946995615 -3.6267754524085936 20.833826709620304
rtibia 25.41962424223967
rfoot -15.206850736032543 -0.6480475836307309
rtoes 5.595836007790814
lowerback 11.849501701497154 0.17099426767244233 -0.5123700860096978
upperback 7.553475334848843 0.28880112629859017 1.3350770262910148
thorax 1.4671227691932314 0.07013615293322895 0.9059767380384638
lowerneck -15.97233889917814 0.3182341411112772 -1.8037739929795291
upperneck 14.383834387800219 0.638106573659716 -0.14951932108713464
head 6.509438424840037 0.16837539891827014 0.2264671076261132
lclavicle 5.757658203599069e-16 -3.109875614713987e-16
lhumerus -17.847515299425776 -1.3095274598502469 85.18806442116171
lradius 18.08276359786937
lwrist 5.548764207228211
lhand -25.790580247268835 -7.357036297377967
lfingers 7.125019999999998
lthumb 0.9475471441358694 23.359413115378285
rclavicle 5.74787493968368e-16 -3.1285710316471924e-16
rhumerus -27.415711739039022 -10.30109440785597 -75.54166425562109
rradius 22.849791831954626
rwrist 34.869622416651026
rhand -20.817738398347455 -25.638767185976015
rfingers 7.125019999999998
rthumb 5.255316317154593 -56.00771185876422
134
root -0.3626726667422166 18.30933544236962 4.0994304317887895 12.682582871366598 0.3950659323584733 -0.8903521219595962
lfemur -27.77680496183753 8.13643642346842 -19.13112049378243
ltibia 50.51735971052775
lfoot -4.061958902053753 -4.258952274650494
ltoes -15.235872909767728
rfemur -20.372323391907898 -3.7199146910993166 20.826686658509484
rtibia 25.918050663995256
rfoot -15.297370545999287 -0.6527875219904735
rtoes 5.525686784892015
lowerback 12.24390502901044 0.16507354222131745 -0.5124945397708303
upperback 7.521303461103656 0.2820786530628642 1.3464804181920929
thorax 1.4315538145827744 0.06624690376532191 0.9369249169322752
lowerneck -16.025973154713796 0.3007357545782628 -1.8128062863709626
upperneck 14.032803840040534 0.6123501646503283 -0.16471736114785024
head 6.421070966171241 0.15700669419148955 0.2251231953358849
lclavicle 5.758289081692708e-16 -3.1090070448677223e-16
lhumerus -18.57194959594605 -1.0430495346926796 84.9951492957772
lradius 17.796344493401488
lwrist 4.809261993794443
lhand -25.76170176425091 -7.343059387265134
lfingers 7.125019999999998
lthumb 0.8908867713374804 23.336151528734376
rclavicle 5.748597148134428e-16 -3.1274696651241237e-16
rhumerus -27.46399567874089 -10.45522414132839 -75.25160611327252
rradius 22.878342704399877
rwrist 34.698118361281374
rhand -20.789749607511567 -25.646843938247756
rfingers 7.125019999999998
rthumb 5.339363833024418 -55.98458741612348
135
root -0.3642844227704381 18.328066148235557 3.921093888517517 12.861566047169111 0.5482373584820694 -0.863666074512276
lfemur -27.89112368644014 8.014976122419162 -19.12941064118447
ltibia 50.824181248524866
lfoot -3.9079562977008564 -4.3622801303341765
ltoes -14.850920512574955
rfemur -20.56289570158023 -3.824198321643931 20.816206530916876
rtibia 26.360937463650117
rfoot -15.350697977996157 -0.6694180089637873
rtoes 5.448936609370023
lowerback 12.566008759358308 0.15035837328482474 -0.525973130260516
upperback 7.489537383134156 0.26693710810946797 1.359154111224301
thorax 1.3900196885440783 0.057773233107511535 0.974792106406211
lowerneck -16.06243345657947 0.28100744675384426 -1.8248542355552084
upperneck 13.690939509165595 0.583349992475632 -0.17839338103550176
head 6.326469189046446 0.14369410636318142 0.22516458999162012
lclavicle 5.757824371035536e-16 -3.10965177228364e-16
lhumerus -19.22021943041801 -0.7541960687030982 84.81943195160557
lradius 17.48367747400932
lwrist 3.9951500145425505
lhand -25.714945211215127 -7.292208483963464
lfingers 7.125019999999998
lthumb 0.8284217425424494 23.315341285629238
rclavicle 5.749526512166741e-16 -3.12605390140825e-16
rhumerus -27.409694314997253 -10.513772185616924 -75.01020639846045
rradius 22.934390642762075
rwrist 34.53675200373203
rhand -20.790334274636994 -25.6918926358441
rfingers 7.125019999999998
rthumb 5.407372328249898 -55.98620385416175
